# xmcd
#
# Track frame offsets:
# 150
# 7589
# 20508
# 28671
# 43208
# 61546
# 74320
# 80204
# 101273
# 115494
# 122717
# 136991
# 148621
# 169441
# 182321
# 192805
# 203849
# 219206
# 225472
# 238686
# 246603
# 259489
#
# Disc length: 3557 seconds
#
#
# Revision: 0
# Processed by: cddbd v1.5.2PL0 Copyright (c) Steve Scherf et al.
# Submitted via: FreeRIP 2.943 
#
DISCID=350de316
DTITLE=Variios Interpretes - FESTA DA CRIANÇA
DYEAR=2006
DGENRE=Infantail
TTITLE0=dirigindo meu carro - Xuxa
TTITLE1=quando a musica parar - Eliana
TTITLE2=Hula- hula da Xuxinha - Xuxa
TTITLE3=Sítio do pica Pau Amarelo - Sítio
TTITLE4=Uni-duni-te - Trem da Alegria
TTITLE5=Super fantastico - Balão Mágico
TTITLE6=Cinco na cama - Xuxa
TTITLE7=brincadeiras de criancas - Gugu
TTITLE8=Pop Pop - Eliana
TTITLE9=Shake com pé - Xuxa
TTITLE10=Narizinho - Sítio
TTITLE11=A galinha magricela - Balão Mágico
TTITLE12=Docinhoo docinho - Gugu
TTITLE13=Meu cahorrinho - Eliana
TTITLE14=ele e o txutxucao - Xuxa
TTITLE15=Aprendendo a rezar - Gugu
TTITLE16=alfabeto - Eliana
TTITLE17=Skinimarinki - Xuxa
TTITLE18=a danca do bambole - Eliana
TTITLE19=estatua - Xuxa
TTITLE20=parabens - Eliana
TTITLE21=Surfar - Xuxa
EXTD=
EXTT0=
EXTT1=
EXTT2=
EXTT3=
EXTT4=
EXTT5=
EXTT6=
EXTT7=
EXTT8=
EXTT9=
EXTT10=
EXTT11=
EXTT12=
EXTT13=
EXTT14=
EXTT15=
EXTT16=
EXTT17=
EXTT18=
EXTT19=
EXTT20=
EXTT21=
PLAYORDER=
